<?xml version="1.0" encoding="UTF-8" standalone="no"?>
<!-- Created with Inkscape (http://www.inkscape.org/) -->

<svg
   xmlns:osb="http://www.openswatchbook.org/uri/2009/osb"
   xmlns:dc="http://purl.org/dc/elements/1.1/"
   xmlns:cc="http://creativecommons.org/ns#"
   xmlns:rdf="http://www.w3.org/1999/02/22-rdf-syntax-ns#"
   xmlns:svg="http://www.w3.org/2000/svg"
   xmlns="http://www.w3.org/2000/svg"
   xmlns:xlink="http://www.w3.org/1999/xlink"
   xmlns:sodipodi="http://sodipodi.sourceforge.net/DTD/sodipodi-0.dtd"
   xmlns:inkscape="http://www.inkscape.org/namespaces/inkscape"
   width="210mm"
   height="297mm"
   viewBox="0 0 744.09448819 1052.3622047"
   id="svg2"
   version="1.1"
   inkscape:version="0.91 r13725"
   sodipodi:docname="return-shipping-pack-instructions.svg">
  <defs
     id="defs4">
    <linearGradient
       id="White"
       osb:paint="solid">
      <stop
         style="stop-color:#ffffff;stop-opacity:1;"
         offset="0"
         id="stop4230" />
    </linearGradient>
    <linearGradient
       id="Black"
       osb:paint="solid">
      <stop
         style="stop-color:#000000;stop-opacity:1;"
         offset="0"
         id="stop4203" />
    </linearGradient>
    <linearGradient
       id="Orange"
       osb:paint="solid"
       gradientTransform="matrix(1.0208334,0,0,1.0208334,278.25246,480.05388)">
      <stop
         style="stop-color:#de6400;stop-opacity:1;"
         offset="0"
         id="stop4197" />
    </linearGradient>
    <linearGradient
       id="Grey"
       osb:paint="solid"
       gradientTransform="matrix(0.9072891,0,0,0.26220422,1401.7475,1189.8039)">
      <stop
         style="stop-color:#f5f3f4;stop-opacity:1;"
         offset="0"
         id="stop4189" />
    </linearGradient>
    <linearGradient
       id="Blue"
       osb:paint="solid"
       gradientTransform="translate(1272.6536,3751.9426)">
      <stop
         style="stop-color:#243373;stop-opacity:1;"
         offset="0"
         id="stop4181" />
    </linearGradient>
    <inkscape:perspective
       id="perspective30"
       inkscape:persp3d-origin="196.47908 : 130.98633 : 1"
       inkscape:vp_z="392.95816 : 196.47949 : 1"
       inkscape:vp_y="0 : 1000 : 0"
       inkscape:vp_x="0 : 196.47949 : 1"
       sodipodi:type="inkscape:persp3d" />
    <linearGradient
       id="linearGradient3307">
      <stop
         style="stop-color:#ffffff;stop-opacity:1;"
         offset="0"
         id="stop3309" />
      <stop
         id="stop3313"
         offset="0.36160421"
         style="stop-color:#ffffff;stop-opacity:0.51485151;" />
      <stop
         style="stop-color:#253571;stop-opacity:0.35643566;"
         offset="0.7708323"
         id="stop3328" />
      <stop
         style="stop-color:#253571;stop-opacity:1;"
         offset="1"
         id="stop3324" />
    </linearGradient>
    <linearGradient
       id="linearGradient3247">
      <stop
         id="stop3249"
         offset="0"
         style="stop-color:#ffffff;stop-opacity:1;" />
      <stop
         id="stop3251"
         offset="1"
         style="stop-color:#253571;stop-opacity:1;" />
    </linearGradient>
    <linearGradient
       id="linearGradient3239">
      <stop
         id="stop3241"
         offset="0"
         style="stop-color:#ffffff;stop-opacity:1;" />
      <stop
         id="stop3243"
         offset="1"
         style="stop-color:#000000;stop-opacity:0;" />
    </linearGradient>
    <radialGradient
       gradientTransform="matrix(0.7792208,0.7915819,-0.7599434,0.7480763,418.71133,-108.22014)"
       gradientUnits="userSpaceOnUse"
       r="198.27467"
       fy="467.98898"
       fx="285.65286"
       cy="467.98898"
       cx="285.65286"
       id="radialGradient3253"
       xlink:href="#linearGradient3247"
       inkscape:collect="always" />
    <radialGradient
       r="198.27467"
       fy="467.98898"
       fx="285.65286"
       cy="467.98898"
       cx="285.65286"
       gradientTransform="matrix(0.7792208,0.7915819,-0.7599434,0.7480763,418.71133,-108.22014)"
       gradientUnits="userSpaceOnUse"
       id="radialGradient3288"
       xlink:href="#linearGradient3247"
       inkscape:collect="always" />
    <radialGradient
       r="198.27467"
       fy="467.98898"
       fx="285.65286"
       cy="467.98898"
       cx="285.65286"
       gradientTransform="matrix(0.7792208,0.7915819,-0.7599434,0.7480763,418.71133,-108.22014)"
       gradientUnits="userSpaceOnUse"
       id="radialGradient3297"
       xlink:href="#linearGradient3247"
       inkscape:collect="always" />
    <radialGradient
       r="198.27467"
       fy="485.01904"
       fx="279.54501"
       cy="485.01904"
       cx="279.54501"
       gradientTransform="matrix(0.4603364,1.6362682,-1.6486307,0.4638141,935.51442,-211.36002)"
       gradientUnits="userSpaceOnUse"
       id="radialGradient3305"
       xlink:href="#linearGradient3307"
       inkscape:collect="always" />
    <inkscape:perspective
       sodipodi:type="inkscape:persp3d"
       inkscape:vp_x="0 : 0.5 : 1"
       inkscape:vp_y="0 : 1000 : 0"
       inkscape:vp_z="1 : 0.5 : 1"
       inkscape:persp3d-origin="0.5 : 0.33333333 : 1"
       id="perspective2846" />
    <linearGradient
       inkscape:collect="always"
       xlink:href="#Blue"
       id="linearGradient4183"
       x1="389.76378"
       y1="64.883789"
       x2="680.87902"
       y2="64.883789"
       gradientUnits="userSpaceOnUse" />
    <linearGradient
       inkscape:collect="always"
       xlink:href="#Black"
       id="linearGradient4205"
       x1="46.286942"
       y1="164.45045"
       x2="102.93977"
       y2="164.45045"
       gradientUnits="userSpaceOnUse" />
  </defs>
  <sodipodi:namedview
     id="base"
     pagecolor="#ffffff"
     bordercolor="#666666"
     borderopacity="1.0"
     inkscape:pageopacity="0.0"
     inkscape:pageshadow="2"
     inkscape:zoom="1.979899"
     inkscape:cx="464.65837"
     inkscape:cy="134.63103"
     inkscape:document-units="mm"
     inkscape:current-layer="layer9"
     showgrid="true"
     inkscape:window-width="1600"
     inkscape:window-height="836"
     inkscape:window-x="0"
     inkscape:window-y="27"
     inkscape:window-maximized="1"
     inkscape:snap-bbox="true"
     inkscape:bbox-paths="true"
     inkscape:bbox-nodes="true"
     inkscape:snap-bbox-edge-midpoints="true"
     inkscape:snap-bbox-midpoints="true"
     inkscape:object-paths="true"
     inkscape:snap-intersection-paths="true"
     inkscape:object-nodes="true"
     inkscape:snap-midpoints="true"
     inkscape:snap-smooth-nodes="true"
     inkscape:snap-nodes="false"
     inkscape:snap-page="true"
     inkscape:snap-text-baseline="true"
     showguides="true"
     inkscape:guide-bbox="true">
    <inkscape:grid
       type="xygrid"
       id="grid3333"
       units="mm"
       spacingx="3.5433071"
       spacingy="3.5433072" />
    <sodipodi:guide
       position="372.04725,1062.9922"
       orientation="1,0"
       id="guide4244" />
  </sodipodi:namedview>
  <metadata
     id="metadata7">
    <rdf:RDF>
      <cc:Work
         rdf:about="">
        <dc:format>image/svg+xml</dc:format>
        <dc:type
           rdf:resource="http://purl.org/dc/dcmitype/StillImage" />
        <dc:title />
      </cc:Work>
    </rdf:RDF>
  </metadata>
  <g
     inkscape:label="Header"
     inkscape:groupmode="layer"
     id="layer1"
     style="display:inline"
     sodipodi:insensitive="true">
    <text
       xml:space="preserve"
       style="font-style:normal;font-weight:normal;font-size:12.5px;line-height:120.00000477%;font-family:Sans;letter-spacing:0px;word-spacing:0px;fill:url(#linearGradient4183);fill-opacity:1;stroke:none;stroke-width:1px;stroke-linecap:butt;stroke-linejoin:miter;stroke-opacity:1"
       x="387.62878"
       y="58.058788"
       id="text3334"
       sodipodi:linespacing="120%"><tspan
         sodipodi:role="line"
         id="tspan3336"
         x="387.62878"
         y="58.058788"
         style="font-style:normal;font-variant:normal;font-weight:500;font-stretch:normal;font-size:35px;font-family:Oswald;-inkscape-font-specification:'Oswald Medium';fill:url(#linearGradient4183);fill-opacity:1">Return Shipping Pack</tspan><tspan
         sodipodi:role="line"
         x="387.62878"
         y="100.05879"
         style="font-style:normal;font-variant:normal;font-weight:500;font-stretch:normal;font-size:35px;font-family:Oswald;-inkscape-font-specification:'Oswald Medium';fill:url(#linearGradient4183);fill-opacity:1"
         id="tspan4138">Instructions</tspan></text>
    <g
       id="g4303"
       transform="matrix(0.16793022,0,0,0.16793022,35.433071,31.889753)">
      <g
         transform="translate(0.75454682,-329.25543)"
         id="layer1-5"
         inkscape:label="Layer 1">
        <g
           transform="translate(16.661025,0)"
           id="g2863">
          <circle
             style="fill:#253571;fill-opacity:1;fill-rule:nonzero;stroke:none"
             id="path2266"
             transform="translate(-168.93846,-22.060915)"
             inkscape:export-xdpi="90.238617"
             inkscape:export-ydpi="90.238617"
             inkscape:export-filename="/home/rob/sr.png"
             cx="347.99756"
             cy="547.79102"
             r="196.47467" />
          <path
             inkscape:connector-curvature="0"
             id="path3255"
             d="m 179.32031,421.81836 c -1.00347,-0.002 -1.33036,0.3009 -1.82226,0.32617 -0.98382,0.0505 -1.47165,0.12455 -1.9043,0.18555 -0.8653,0.12199 -1.3827,0.22788 -1.94336,0.3418 -1.12131,0.22782 -2.26086,0.4929 -3.6582,0.83398 -2.79469,0.68217 -6.50353,1.65208 -11.07031,2.91406 -9.13358,2.52397 -21.62604,6.19651 -35.89649,10.78906 -28.540896,9.18511 -64.033529,21.93962 -93.857421,36.85157 a 18.851885,18.851885 0 0 0 -1.113281,33.11718 c 27.364497,16.06177 49.880748,29.07712 72.628902,39.93165 -42.597901,18.95926 -74.40234,45.29492 -74.40234,45.29492 a 18.851885,18.851885 0 1 0 23.642578,29.36718 c 0,0 58.719472,-45.42435 109.568362,-54.1914 a 18.851885,18.851885 0 0 0 2.49609,-36.54492 c -29.51775,-9.35929 -53.28411,-21.08148 -82.910155,-37.85547 18.871872,-7.62663 38.452355,-14.59893 55.496095,-20.08399 13.73738,-4.421 25.80086,-7.96224 34.39062,-10.33593 3.91608,-1.08217 6.86354,-1.84414 9.08789,-2.39649 2.49591,0.6702 5.93883,1.60044 10.25586,2.80274 8.79378,2.44906 20.98579,5.96149 34.84571,10.31836 17.09847,5.37489 36.67041,12.17291 55.49218,19.64648 -28.95723,16.13721 -52.27599,27.27379 -83.35742,38.60937 a 18.851885,18.851885 0 0 0 4.11914,36.41211 c 21.24661,2.65583 49.31739,15.80447 70.96094,28.73047 21.64355,12.92601 36.87891,24.94141 36.87891,24.94141 a 18.851885,18.851885 0 1 0 23.35351,-29.5957 c 0,0 -17.08902,-13.49106 -40.90234,-27.7129 -10.02492,-5.9871 -21.28381,-12.17857 -33.24219,-17.6875 22.96525,-10.88013 45.43334,-23.22408 73.52539,-39.71289 A 18.851885,18.851885 0 0 0 328.86914,474 c -29.94331,-14.97166 -65.68323,-27.45212 -94.41016,-36.48242 -14.36346,-4.51515 -26.94392,-8.13802 -36.03515,-10.66992 -4.54562,-1.26596 -8.22204,-2.25875 -10.78711,-2.94727 -1.28254,-0.34426 -2.29202,-0.61448 -2.95508,-0.79297 -0.33153,-0.0892 -0.58323,-0.15766 -0.68359,-0.18554 -0.10036,-0.0279 -1.22913,-0.50693 1.19922,0.40234 -3.194,-1.19598 -4.87348,-1.50371 -5.87696,-1.50586 z m -5.41406,37.42773 c 0.29986,0.0833 0.60345,0.16572 0.97461,0.26563 0.38499,0.10363 1.0274,0.275 1.54687,0.41406 -0.62364,-0.10695 -1.50271,-0.35885 -2.52148,-0.67969 z"
             style="color:#000000;font-style:normal;font-variant:normal;font-weight:normal;font-stretch:normal;font-size:medium;line-height:normal;font-family:sans-serif;text-indent:0;text-align:start;text-decoration:none;text-decoration-line:none;text-decoration-style:solid;text-decoration-color:#000000;letter-spacing:normal;word-spacing:normal;text-transform:none;direction:ltr;block-progression:tb;writing-mode:lr-tb;baseline-shift:baseline;text-anchor:start;white-space:normal;clip-rule:nonzero;display:inline;overflow:visible;visibility:visible;opacity:1;isolation:auto;mix-blend-mode:normal;color-interpolation:sRGB;color-interpolation-filters:linearRGB;solid-color:#000000;solid-opacity:1;fill:#ffffff;fill-opacity:1;fill-rule:nonzero;stroke:none;stroke-width:37.70000076;stroke-linecap:round;stroke-linejoin:round;stroke-miterlimit:4;stroke-dasharray:none;stroke-dashoffset:0;stroke-opacity:1;color-rendering:auto;image-rendering:auto;shape-rendering:auto;text-rendering:auto;enable-background:accumulate" />
        </g>
        <g
           id="text2834"
           style="font-style:normal;font-variant:normal;font-weight:normal;font-stretch:normal;font-size:144px;line-height:89.99999762%;font-family:Eurostile;-inkscape-font-specification:Eurostile;text-align:start;writing-mode:lr-tb;text-anchor:start;fill:#000000;fill-opacity:1;stroke:none">
          <path
             id="path4352"
             d="m 514.91544,503.75745 -10.75782,0 q 0,-11.60157 -3.86718,-14.69532 -3.86719,-3.16406 -18.21094,-3.16406 -17.01563,0 -21.9375,3.02344 -4.92188,2.95312 -4.92188,13.28906 0,11.60156 3.86719,14.13281 3.86719,2.53125 22.99219,3.44532 22.42969,0.98437 28.47656,5.69531 6.11719,4.71094 6.11719,21.09375 0,17.71875 -7.03125,22.92187 -6.96094,5.20313 -30.86719,5.20313 -20.74219,0 -27.63281,-5.20313 -6.82031,-5.27343 -6.82031,-21.16406 l -0.0703,-4.28906 10.75782,0 0,2.39062 q 0,12.86719 3.9375,16.03125 3.9375,3.09375 20.17968,3.09375 18.63282,0 22.92188,-3.09375 4.28906,-3.16406 4.28906,-16.73437 0,-8.78906 -2.95312,-11.67188 -2.88282,-2.95312 -12.16407,-3.51562 l -11.25,-0.5625 -10.6875,-0.5625 q -24.39843,-1.6875 -24.39843,-25.3125 0,-16.38281 7.10156,-21.86719 7.10156,-5.48437 28.33594,-5.48437 21.51562,0 28.05468,5.13281 6.53907,5.0625 6.53907,21.86719 z"
             inkscape:connector-curvature="0" />
          <path
             id="path4354"
             d="m 563.29044,487.79651 0,85.92187 -10.82813,0 0,-85.92187 -31.28906,0 0,-10.05469 73.125,0 0,10.05469 -31.00781,0 z"
             inkscape:connector-curvature="0" />
          <path
             id="path4356"
             d="m 669.32169,477.74182 10.82812,0 0,67.21875 q 0,18.28125 -7.38281,24.04688 -7.3125,5.69531 -30.79688,5.69531 -22.00781,0 -29.95312,-5.48438 -7.875,-5.55468 -7.875,-21.02343 l 0,-3.23438 0,-67.21875 10.82812,0 0,67.21875 q 0,13.64063 4.42969,17.15625 4.42969,3.44531 21.79688,3.44531 18.84375,0 23.48437,-3.375 4.64063,-3.44531 4.64063,-17.22656 l 0,-67.21875 z"
             inkscape:connector-curvature="0" />
          <path
             id="path4358"
             d="m 698.29044,573.71838 0,-95.97656 44.4375,0 q 20.60156,0 27.91406,9.07031 7.3125,9.07032 7.3125,34.73438 0,31.21875 -6.53906,41.69531 -6.46875,10.47656 -25.94532,10.47656 l -47.17968,0 z m 10.82812,-9.14062 31.28906,0 q 17.22657,0 22.21875,-6.89063 4.99219,-6.89062 4.99219,-30.72656 0,-26.15625 -4.35937,-33.11719 -4.28907,-6.96093 -20.67188,-6.96093 l -33.46875,0 0,77.69531 z"
             inkscape:connector-curvature="0" />
          <path
             id="path4360"
             d="m 799.18887,486.88245 0,32.69531 48.72657,0 0,9.14062 -48.72657,0 0,35.85938 50.83594,0 0,9.14062 -61.66406,0 0,-95.97656 61.66406,0 0,9.14063 -50.83594,0 z"
             inkscape:connector-curvature="0" />
          <path
             id="path4362"
             d="m 946.21231,477.74182 0,95.97656 -17.78906,0 -40.21875,-65.32031 -6.53906,-10.75781 -3.23438,-5.34375 -3.23437,-5.34375 -0.28125,0 0.0703,3.58594 0.0703,3.65625 0,7.17187 0,72.35156 -10.82812,0 0,-95.97656 17.71875,0 35.08593,57.23438 9.14063,15.04687 4.57031,7.45313 4.5,7.52343 0.28125,0 -0.0703,-3.58593 -0.0703,-3.65625 0,-7.17188 0,-72.84375 10.82812,0 z"
             inkscape:connector-curvature="0" />
          <path
             id="path4364"
             d="m 998.10294,487.79651 0,85.92187 -10.82813,0 0,-85.92187 -31.28906,0 0,-10.05469 73.12495,0 0,10.05469 -31.00776,0 z"
             inkscape:connector-curvature="0" />
          <path
             id="path4366"
             d="m 1074.8842,573.71838 0,-95.97656 45.7031,0 q 15.4688,0 21.7969,6.11719 6.3281,6.11719 6.3281,21.23437 0,13.28907 -3.4453,18.5625 -3.4453,5.20313 -13.1484,6.75 l 0,0.21094 q 15.2578,1.125 15.2578,18.5625 l 0,24.53906 -10.8282,0 0,-22.07812 q 0,-16.80469 -14.5546,-16.80469 l -3.586,0 -32.6953,0 0,38.88281 -10.8281,0 z m 10.8281,-48.02343 31.2891,0 q 12.375,0 16.875,-3.72657 4.5,-3.79687 4.5,-14.20312 0,-13.00781 -3.375,-16.94531 -3.3047,-3.9375 -14.2735,-3.9375 l -35.0156,0 0,38.8125 z"
             inkscape:connector-curvature="0" />
          <path
             id="path4368"
             d="m 1199.6889,476.75745 q 27.2109,0 34.0312,7.94531 6.8203,7.94531 6.8203,39.72656 0,34.24219 -6.539,42.25781 -6.5391,8.01563 -34.3125,8.01563 -27.6328,0 -34.3125,-7.94531 -6.6094,-7.94532 -6.6094,-41.0625 l 0,-6.75 0.1406,-9.07032 q 0,-19.125 8.5781,-26.08593 8.6485,-7.03125 32.2032,-7.03125 z m -0.07,9.14062 q -22.7813,0 -26.6485,5.0625 -3.8672,5.0625 -3.8672,34.73438 0,29.74218 3.8672,34.80468 3.8672,5.0625 26.6485,5.0625 22.8515,0 26.7187,-5.0625 3.8672,-5.0625 3.8672,-34.80468 l 0,-6.25782 -0.07,-9.07031 q 0,-15.89062 -5.3438,-20.17969 -5.3437,-4.28906 -25.1718,-4.28906 z"
             inkscape:connector-curvature="0" />
          <path
             id="path4370"
             d="m 1252.9154,573.71838 0,-95.97656 42.4688,0 q 17.6484,0 23.0625,4.85156 5.4844,4.85157 5.4844,20.53125 0,15.96094 -12.3047,20.17969 l 0,0.21094 q 15.2578,3.65625 15.2578,22.57031 0,15.25781 -6.0469,21.44531 -5.9766,6.1875 -20.8828,6.1875 l -47.0391,0 z m 10.8282,-53.78906 28.4765,0 q 13.5703,0 17.4375,-3.23437 3.9375,-3.23438 3.9375,-14.41407 0,-9.70312 -3.4453,-12.51562 -3.375,-2.88281 -14.9766,-2.88281 l -31.4296,0 0,33.04687 z m 0,44.64844 22.9921,0 9.7735,-0.0703 q 12.375,0 16.1719,-3.16407 3.8671,-3.23437 3.8671,-13.57031 0,-12.86719 -3.8671,-15.75 -3.8672,-2.95312 -21.0235,-2.95312 l -27.914,0 0,35.50781 z"
             inkscape:connector-curvature="0" />
          <path
             id="path4372"
             d="m 1376.8764,476.75745 q 27.2109,0 34.0312,7.94531 6.8203,7.94531 6.8203,39.72656 0,34.24219 -6.539,42.25781 -6.5391,8.01563 -34.3125,8.01563 -27.6328,0 -34.3125,-7.94531 -6.6094,-7.94532 -6.6094,-41.0625 l 0,-6.75 0.1406,-9.07032 q 0,-19.125 8.5781,-26.08593 8.6485,-7.03125 32.2032,-7.03125 z m -0.07,9.14062 q -22.7813,0 -26.6485,5.0625 -3.8672,5.0625 -3.8672,34.73438 0,29.74218 3.8672,34.80468 3.8672,5.0625 26.6485,5.0625 22.8515,0 26.7187,-5.0625 3.8672,-5.0625 3.8672,-34.80468 l 0,-6.25782 -0.07,-9.07031 q 0,-15.89062 -5.3438,-20.17969 -5.3437,-4.28906 -25.1718,-4.28906 z"
             inkscape:connector-curvature="0" />
          <path
             id="path4374"
             d="m 1463.5717,487.79651 0,85.92187 -10.8281,0 0,-85.92187 -31.2891,0 0,-10.05469 73.125,0 0,10.05469 -31.0078,0 z"
             inkscape:connector-curvature="0" />
          <path
             id="path4376"
             d="m 1515.1811,477.74182 0,95.97656 -10.8282,0 0,-95.97656 10.8282,0 z"
             inkscape:connector-curvature="0" />
          <path
             id="path4378"
             d="m 1596.5326,541.65588 10.7578,0 0,3.65625 q 0,19.61719 -6.6797,24.53907 -6.6796,4.85156 -33.6093,4.85156 -24.1172,0 -30.6563,-8.57813 -6.539,-8.64843 -6.539,-40.57031 0,-24.96094 1.4765,-31.35937 1.4766,-6.46875 8.4375,-11.53125 8.1563,-5.90625 35.2266,-5.90625 18.3515,0 24.6797,5.69531 6.3984,5.69531 6.3984,22.00781 l 0.07,2.60156 -10.7578,0 -0.07,-2.95312 q 0,-11.60156 -3.7969,-14.90625 -3.7265,-3.30469 -16.9453,-3.30469 -23.2031,0 -28.3359,3.86719 -5.1328,3.86719 -5.1328,21.44531 0,40.42969 3.4453,47.39063 3.4453,6.96093 23.5547,6.96093 19.125,0 23.8359,-3.02343 4.7812,-3.02344 4.7812,-15.1875 l -0.1406,-5.69532 z"
             inkscape:connector-curvature="0" />
          <path
             id="path4380"
             d="m 1685.4779,503.75745 -10.7578,0 q 0,-11.60157 -3.8672,-14.69532 -3.8672,-3.16406 -18.2109,-3.16406 -17.0156,0 -21.9375,3.02344 -4.9219,2.95312 -4.9219,13.28906 0,11.60156 3.8672,14.13281 3.8672,2.53125 22.9922,3.44532 22.4297,0.98437 28.4766,5.69531 6.1171,4.71094 6.1171,21.09375 0,17.71875 -7.0312,22.92187 -6.9609,5.20313 -30.8672,5.20313 -20.7422,0 -27.6328,-5.20313 -6.8203,-5.27343 -6.8203,-21.16406 l -0.07,-4.28906 10.7578,0 0,2.39062 q 0,12.86719 3.9375,16.03125 3.9375,3.09375 20.1797,3.09375 18.6328,0 22.9218,-3.09375 4.2891,-3.16406 4.2891,-16.73437 0,-8.78906 -2.9531,-11.67188 -2.8828,-2.95312 -12.1641,-3.51562 l -11.25,-0.5625 -10.6875,-0.5625 q -24.3984,-1.6875 -24.3984,-25.3125 0,-16.38281 7.1015,-21.86719 7.1016,-5.48437 28.336,-5.48437 21.5156,0 28.0547,5.13281 6.539,5.0625 6.539,21.86719 z"
             inkscape:connector-curvature="0" />
        </g>
      </g>
      <g
         transform="translate(0.75454682,-329.25543)"
         inkscape:label="2"
         id="layer2" />
    </g>
    <text
       xml:space="preserve"
       style="font-style:normal;font-weight:normal;font-size:12.5px;line-height:120.00000477%;font-family:Sans;letter-spacing:0px;word-spacing:0px;fill:#000000;fill-opacity:1;stroke:none;stroke-width:1px;stroke-linecap:butt;stroke-linejoin:miter;stroke-opacity:1"
       x="584.64569"
       y="99.212585"
       id="text3464"
       sodipodi:linespacing="120%"><tspan
         sodipodi:role="line"
         id="tspan3466"
         x="584.64569"
         y="99.212585"
         style="font-style:normal;font-variant:normal;font-weight:normal;font-stretch:normal;font-size:12.5px;font-family:'Open Sans';-inkscape-font-specification:'Open Sans'">Revision {rev}</tspan></text>
  </g>
  <g
     inkscape:groupmode="layer"
     id="layer3"
     inkscape:label="Step1"
     style="display:inline"
     sodipodi:insensitive="true">
    <rect
       style="opacity:1;fill:url(#Grey);fill-opacity:1;stroke:none;stroke-width:0.70866144;stroke-linecap:round;stroke-linejoin:round;stroke-miterlimit:4;stroke-dasharray:none;stroke-dashoffset:0;stroke-opacity:1"
       id="rect4242"
       width="325.98425"
       height="173.62204"
       x="35.433071"
       y="131.10236" />
    <text
       xml:space="preserve"
       style="font-style:normal;font-variant:normal;font-weight:normal;font-stretch:normal;font-size:12.5px;line-height:120.00000477%;font-family:opensans;-inkscape-font-specification:opensans;letter-spacing:0px;word-spacing:0px;fill:url(#Blue);fill-opacity:1;stroke:none;stroke-width:1px;stroke-linecap:butt;stroke-linejoin:miter;stroke-opacity:1"
       x="49.6063"
       y="162.99211"
       id="text4331"
       sodipodi:linespacing="120%"><tspan
         sodipodi:role="line"
         id="tspan4333"
         x="49.6063"
         y="162.99211"
         style="font-style:normal;font-variant:normal;font-weight:bold;font-stretch:condensed;font-size:22.5px;font-family:'Open Sans Condensed';-inkscape-font-specification:'Open Sans Condensed, Bold Condensed';fill:url(#Blue);fill-opacity:1">Step 1 - Check Parts</tspan></text>
    <flowRoot
       xml:space="preserve"
       id="flowRoot4234"
       style="font-style:normal;font-weight:normal;font-size:12.5px;line-height:120.00000477%;font-family:Sans;letter-spacing:0px;word-spacing:0px;fill:#000000;fill-opacity:1;stroke:none;stroke-width:1px;stroke-linecap:butt;stroke-linejoin:miter;stroke-opacity:1"
       transform="translate(14.25083,-8.4356356)"><flowRegion
         id="flowRegion4236"><rect
           id="rect4238"
           width="298.50266"
           height="64.050606"
           x="35.355339"
           y="186.66147" /></flowRegion><flowPara
         id="flowPara4240"
         style="font-size:10px">Verify that all parts of the return shipping pack are present, as listed below. Also, verify that you have all of the parts to be returned, as specified by your Student Robotics contact. If either parts of this pack or parts to be returned are missing, please get in touch.</flowPara></flowRoot>    <flowRoot
       xml:space="preserve"
       id="flowRoot4246"
       style="font-style:normal;font-weight:normal;font-size:12.5px;line-height:120.00000477%;font-family:Sans;letter-spacing:0px;word-spacing:0px;fill:#000000;fill-opacity:1;stroke:none;stroke-width:1px;stroke-linecap:butt;stroke-linejoin:miter;stroke-opacity:1"
       transform="translate(-5.4464354,-27.338644)"><flowRegion
         id="flowRegion4248"><rect
           id="rect4250"
           width="297.84268"
           height="45.597378"
           x="55.053314"
           y="274.03967" /></flowRegion><flowPara
         style="font-size:12.5px"
         id="flowPara4262">1× polythene bag, 5× cable ties, 1× LiPo warning label, 2× document wallets, 1× brown paper, 4x brown jiffy bags, 4x white jiffy bags</flowPara></flowRoot>  </g>
  <g
     inkscape:groupmode="layer"
     id="layer4"
     inkscape:label="Step2"
     style="display:inline"
     sodipodi:insensitive="true">
    <rect
       style="opacity:1;fill:url(#Grey);fill-opacity:1;stroke:none;stroke-width:0.70866144;stroke-linecap:round;stroke-linejoin:round;stroke-miterlimit:4;stroke-dasharray:none;stroke-dashoffset:0;stroke-opacity:1"
       id="rect4242-8"
       width="325.98425"
       height="170.07874"
       x="35.433071"
       y="325.98425" />
    <text
       xml:space="preserve"
       style="font-style:normal;font-variant:normal;font-weight:normal;font-stretch:normal;font-size:12.5px;line-height:120.00000477%;font-family:opensans;-inkscape-font-specification:opensans;letter-spacing:0px;word-spacing:0px;fill:url(#Blue);fill-opacity:1;stroke:none;stroke-width:1px;stroke-linecap:butt;stroke-linejoin:miter;stroke-opacity:1"
       x="49.6063"
       y="357.87399"
       id="text4331-2"
       sodipodi:linespacing="120%"><tspan
         sodipodi:role="line"
         id="tspan4333-1"
         x="49.6063"
         y="357.87399"
         style="font-style:normal;font-variant:normal;font-weight:bold;font-stretch:condensed;font-size:22.5px;font-family:'Open Sans Condensed';-inkscape-font-specification:'Open Sans Condensed, Bold Condensed';fill:url(#Blue);fill-opacity:1">Step 2 - Wrap Parts</tspan></text>
    <flowRoot
       xml:space="preserve"
       id="flowRoot4234-8"
       style="font-style:normal;font-weight:normal;font-size:12.5px;line-height:120.00000477%;font-family:Sans;letter-spacing:0px;word-spacing:0px;fill:#000000;fill-opacity:1;stroke:none;stroke-width:1px;stroke-linecap:butt;stroke-linejoin:miter;stroke-opacity:1"
       transform="translate(14.25083,186.44626)"><flowRegion
         id="flowRegion4236-2"><rect
           id="rect4238-5"
           width="298.84494"
           height="119.79502"
           x="35.355339"
           y="186.66147" /></flowRegion><flowPara
         style="font-size:10px"
         id="flowPara4332">Place all parts to be returned, except for cables, into the jiffy bags. If returning a tablet, please place that in its own white bag and if returning batteries, place them together into their own brown bag. Place any small/loose parts, such as WiFi dongles, USB memory sticks, pluggable terminal blocks (camcons), into a single brown jiffy bag and seal it.</flowPara><flowPara
         style="font-size:10px"
         id="flowPara4338" /><flowPara
         style="font-size:10px"
         id="flowPara4340">Please do not overfill or seal any of the bags other than the one containing loose items.</flowPara></flowRoot>  </g>
  <g
     inkscape:groupmode="layer"
     id="layer5"
     inkscape:label="Step3"
     style="display:inline"
     sodipodi:insensitive="true">
    <rect
       style="opacity:1;fill:url(#Grey);fill-opacity:1;stroke:none;stroke-width:0.70866144;stroke-linecap:round;stroke-linejoin:round;stroke-miterlimit:4;stroke-dasharray:none;stroke-dashoffset:0;stroke-opacity:1"
       id="rect4242-8-9"
       width="325.98425"
       height="237.4016"
       x="35.433071"
       y="517.32281" />
    <text
       xml:space="preserve"
       style="font-style:normal;font-variant:normal;font-weight:normal;font-stretch:normal;font-size:12.5px;line-height:120.00000477%;font-family:opensans;-inkscape-font-specification:opensans;letter-spacing:0px;word-spacing:0px;fill:url(#Blue);fill-opacity:1;stroke:none;stroke-width:1px;stroke-linecap:butt;stroke-linejoin:miter;stroke-opacity:1"
       x="49.6063"
       y="549.21259"
       id="text4331-2-8"
       sodipodi:linespacing="120%"><tspan
         sodipodi:role="line"
         id="tspan4333-1-2"
         x="49.6063"
         y="549.21259"
         style="font-style:normal;font-variant:normal;font-weight:bold;font-stretch:condensed;font-size:22.5px;font-family:'Open Sans Condensed';-inkscape-font-specification:'Open Sans Condensed, Bold Condensed';fill:url(#Blue);fill-opacity:1">Step 3 - Protect Batteries</tspan></text>
    <flowRoot
       xml:space="preserve"
       id="flowRoot4234-8-1"
       style="font-style:normal;font-weight:normal;font-size:12.5px;line-height:120.00000477%;font-family:Sans;letter-spacing:0px;word-spacing:0px;fill:#000000;fill-opacity:1;stroke:none;stroke-width:1px;stroke-linecap:butt;stroke-linejoin:miter;stroke-opacity:1"
       transform="translate(14.25083,377.78484)"><flowRegion
         id="flowRegion4236-2-7"><rect
           id="rect4238-5-3"
           width="297.59491"
           height="40.152164"
           x="35.355339"
           y="186.66147" /></flowRegion><flowPara
         style="font-size:10px"
         id="flowPara4340-6">If returning batteries, please place the brown jiffy bag that they are contained in into the battery charging bag.</flowPara></flowRoot>    <rect
       style="opacity:1;fill:url(#Orange);fill-opacity:1;stroke:none;stroke-width:0.70866144;stroke-linecap:round;stroke-linejoin:round;stroke-miterlimit:4;stroke-dasharray:none;stroke-dashoffset:0;stroke-opacity:1"
       id="rect4679"
       width="186.02365"
       height="124.01577"
       x="106.29921"
       y="609.44879" />
  </g>
  <g
     inkscape:groupmode="layer"
     id="layer6"
     inkscape:label="Step4"
     style="display:inline"
     sodipodi:insensitive="true">
    <rect
       style="opacity:1;fill:url(#Grey);fill-opacity:1;stroke:none;stroke-width:0.70866144;stroke-linecap:round;stroke-linejoin:round;stroke-miterlimit:4;stroke-dasharray:none;stroke-dashoffset:0;stroke-opacity:1"
       id="rect4242-8-9-9"
       width="325.98425"
       height="109.84254"
       x="35.433071"
       y="775.98425" />
    <text
       xml:space="preserve"
       style="font-style:normal;font-variant:normal;font-weight:normal;font-stretch:normal;font-size:12.5px;line-height:120.00000477%;font-family:opensans;-inkscape-font-specification:opensans;letter-spacing:0px;word-spacing:0px;fill:url(#Blue);fill-opacity:1;stroke:none;stroke-width:1px;stroke-linecap:butt;stroke-linejoin:miter;stroke-opacity:1"
       x="49.6063"
       y="807.87402"
       id="text4331-2-8-2"
       sodipodi:linespacing="120%"><tspan
         sodipodi:role="line"
         id="tspan4333-1-2-0"
         x="49.6063"
         y="807.87402"
         style="font-style:normal;font-variant:normal;font-weight:bold;font-stretch:condensed;font-size:22.5px;font-family:'Open Sans Condensed';-inkscape-font-specification:'Open Sans Condensed, Bold Condensed';fill:url(#Blue);fill-opacity:1">Step 4 - Prepare Box</tspan></text>
    <flowRoot
       xml:space="preserve"
       id="flowRoot4234-8-1-4"
       style="font-style:normal;font-weight:normal;font-size:12.5px;line-height:120.00000477%;font-family:Sans;letter-spacing:0px;word-spacing:0px;fill:#000000;fill-opacity:1;stroke:none;stroke-width:1px;stroke-linecap:butt;stroke-linejoin:miter;stroke-opacity:1"
       transform="translate(14.25083,636.44625)"><flowRegion
         id="flowRegion4236-2-7-5"><rect
           id="rect4238-5-3-5"
           width="297.95209"
           height="55.152168"
           x="35.355339"
           y="186.66147" /></flowRegion><flowPara
         style="font-size:10px"
         id="flowPara4549">Tear the brown paper into two equal sized pieces and loosely scrunch them up to make them more voluminous. Place one of these pieces of brown paper into the bottom of the Really Useful Box.</flowPara></flowRoot>  </g>
  <g
     inkscape:groupmode="layer"
     id="layer7"
     inkscape:label="Step5"
     style="display:inline"
     sodipodi:insensitive="true">
    <rect
       style="opacity:1;fill:url(#Grey);fill-opacity:1;stroke:none;stroke-width:0.70866144;stroke-linecap:round;stroke-linejoin:round;stroke-miterlimit:4;stroke-dasharray:none;stroke-dashoffset:0;stroke-opacity:1"
       id="rect4242-8-9-9-8"
       width="325.98425"
       height="194.88188"
       x="382.67715"
       y="131.10236" />
    <text
       xml:space="preserve"
       style="font-style:normal;font-variant:normal;font-weight:normal;font-stretch:normal;font-size:12.5px;line-height:120.00000477%;font-family:opensans;-inkscape-font-specification:opensans;letter-spacing:0px;word-spacing:0px;fill:url(#Blue);fill-opacity:1;stroke:none;stroke-width:1px;stroke-linecap:butt;stroke-linejoin:miter;stroke-opacity:1"
       x="396.8504"
       y="162.99211"
       id="text4331-2-8-2-2"
       sodipodi:linespacing="120%"><tspan
         sodipodi:role="line"
         id="tspan4333-1-2-0-2"
         x="396.8504"
         y="162.99211"
         style="font-style:normal;font-variant:normal;font-weight:bold;font-stretch:condensed;font-size:22.5px;font-family:'Open Sans Condensed';-inkscape-font-specification:'Open Sans Condensed, Bold Condensed';fill:url(#Blue);fill-opacity:1">Step 5 (continued) - Pack Box</tspan></text>
    <rect
       style="opacity:1;fill:url(#Grey);fill-opacity:1;stroke:none;stroke-width:0.70866144;stroke-linecap:round;stroke-linejoin:round;stroke-miterlimit:4;stroke-dasharray:none;stroke-dashoffset:0;stroke-opacity:1"
       id="rect4242-8-9-9-8-1"
       width="325.98425"
       height="109.84254"
       x="35.433071"
       y="907.08661" />
    <text
       xml:space="preserve"
       style="font-style:normal;font-variant:normal;font-weight:normal;font-stretch:normal;font-size:12.5px;line-height:120.00000477%;font-family:opensans;-inkscape-font-specification:opensans;letter-spacing:0px;word-spacing:0px;fill:url(#Blue);fill-opacity:1;stroke:none;stroke-width:1px;stroke-linecap:butt;stroke-linejoin:miter;stroke-opacity:1"
       x="49.606319"
       y="938.97638"
       id="text4331-2-8-2-2-1"
       sodipodi:linespacing="120%"><tspan
         sodipodi:role="line"
         id="tspan4333-1-2-0-2-9"
         x="49.606319"
         y="938.97638"
         style="font-style:normal;font-variant:normal;font-weight:bold;font-stretch:condensed;font-size:22.5px;font-family:'Open Sans Condensed';-inkscape-font-specification:'Open Sans Condensed, Bold Condensed';fill:url(#Blue);fill-opacity:1">Step 5 - Pack Box</tspan></text>
    <flowRoot
       xml:space="preserve"
       id="flowRoot4234-8-1-4-5-1"
       style="font-style:normal;font-weight:normal;font-size:12.5px;line-height:120.00000477%;font-family:Sans;letter-spacing:0px;word-spacing:0px;fill:#000000;fill-opacity:1;stroke:none;stroke-width:1px;stroke-linecap:butt;stroke-linejoin:miter;stroke-opacity:1"
       transform="translate(14.250847,767.54866)"><flowRegion
         id="flowRegion4236-2-7-5-9-1"><rect
           id="rect4238-5-3-5-3-3"
           width="297.64789"
           height="62.910488"
           x="35.355339"
           y="186.66147" /></flowRegion><flowPara
         style="font-size:10px"
         id="flowPara4340-6-7-5-6">Place all of the jiffy bags, the battery charging bag (if returning batteries) and all cables on top of the layer of brown paper. Then place the second piece of scrunched up brown paper on top.</flowPara></flowRoot>    <rect
       style="opacity:1;fill:url(#Orange);fill-opacity:1;stroke:none;stroke-width:0.70866144;stroke-linecap:round;stroke-linejoin:round;stroke-miterlimit:4;stroke-dasharray:none;stroke-dashoffset:0;stroke-opacity:1"
       id="rect4683"
       width="186.02362"
       height="124.01575"
       x="451.77167"
       y="184.25195" />
  </g>
  <g
     inkscape:groupmode="layer"
     id="layer8"
     inkscape:label="Step6"
     sodipodi:insensitive="true">
    <rect
       style="opacity:1;fill:url(#Grey);fill-opacity:1;stroke:none;stroke-width:0.70866144;stroke-linecap:round;stroke-linejoin:round;stroke-miterlimit:4;stroke-dasharray:none;stroke-dashoffset:0;stroke-opacity:1"
       id="rect4242-8-9-9-8-5"
       width="325.98425"
       height="407.48032"
       x="382.67715"
       y="347.24408" />
    <text
       xml:space="preserve"
       style="font-style:normal;font-variant:normal;font-weight:normal;font-stretch:normal;font-size:12.5px;line-height:120.00000477%;font-family:opensans;-inkscape-font-specification:opensans;letter-spacing:0px;word-spacing:0px;fill:url(#Blue);fill-opacity:1;stroke:none;stroke-width:1px;stroke-linecap:butt;stroke-linejoin:miter;stroke-opacity:1"
       x="396.8504"
       y="379.13385"
       id="text4331-2-8-2-2-4"
       sodipodi:linespacing="120%"><tspan
         sodipodi:role="line"
         id="tspan4333-1-2-0-2-2"
         x="396.8504"
         y="379.13385"
         style="font-style:normal;font-variant:normal;font-weight:bold;font-stretch:condensed;font-size:22.5px;font-family:'Open Sans Condensed';-inkscape-font-specification:'Open Sans Condensed, Bold Condensed';fill:url(#Blue);fill-opacity:1">Step 6 - Attach Lid</tspan></text>
    <flowRoot
       xml:space="preserve"
       id="flowRoot4234-8-1-4-5-3"
       style="font-style:normal;font-weight:normal;font-size:12.5px;line-height:120.00000477%;font-family:Sans;letter-spacing:0px;word-spacing:0px;fill:#000000;fill-opacity:1;stroke:none;stroke-width:1px;stroke-linecap:butt;stroke-linejoin:miter;stroke-opacity:1"
       transform="translate(361.49493,207.70612)"><flowRegion
         id="flowRegion4236-2-7-5-9-6"><rect
           id="rect4238-5-3-5-3-5"
           width="297.9722"
           height="137.98122"
           x="35.355339"
           y="186.66147" /></flowRegion><flowPara
         style="font-size:10px"
         id="flowPara4340-6-7-5-2">Working on one end of the lid at a time, pass a cable tie through the two holes, from the inside to the outside. Fold the block end of the two cable ties under the lip of the lid and place the lid on the box such that both ends of the cable ties are outside of the box. Feed the non-block ends of the cable ties through the holes in the handle and clip the handle shut. Loosely zip up the cable ties. Repeat this procedure for the other end of the lid. Now zip up all four cable ties tightly, with their tails pointing straight down the side of the box. Please do not cut off the tails as the sharp corners can damage the polythene bag.</flowPara></flowRoot>    <rect
       style="opacity:1;fill:url(#Orange);fill-opacity:1;stroke:none;stroke-width:0.70866144;stroke-linecap:round;stroke-linejoin:round;stroke-miterlimit:4;stroke-dasharray:none;stroke-dashoffset:0;stroke-opacity:1"
       id="rect4685"
       width="141.73227"
       height="94.48819"
       x="396.8504"
       y="538.58264" />
    <rect
       y="538.58264"
       x="552.75592"
       height="94.48819"
       width="141.73227"
       id="rect4693"
       style="opacity:1;fill:url(#Orange);fill-opacity:1;stroke:none;stroke-width:0.70866144;stroke-linecap:round;stroke-linejoin:round;stroke-miterlimit:4;stroke-dasharray:none;stroke-dashoffset:0;stroke-opacity:1" />
    <rect
       y="644.8819"
       x="396.8504"
       height="94.48819"
       width="141.73227"
       id="rect4695"
       style="opacity:1;fill:url(#Orange);fill-opacity:1;stroke:none;stroke-width:0.70866144;stroke-linecap:round;stroke-linejoin:round;stroke-miterlimit:4;stroke-dasharray:none;stroke-dashoffset:0;stroke-opacity:1" />
    <rect
       style="opacity:1;fill:url(#Orange);fill-opacity:1;stroke:none;stroke-width:0.70866144;stroke-linecap:round;stroke-linejoin:round;stroke-miterlimit:4;stroke-dasharray:none;stroke-dashoffset:0;stroke-opacity:1"
       id="rect4697"
       width="141.73227"
       height="94.48819"
       x="552.75592"
       y="644.8819" />
  </g>
  <g
     inkscape:groupmode="layer"
     id="layer9"
     inkscape:label="Step7"
     style="display:inline">
    <rect
       style="opacity:1;fill:url(#Grey);fill-opacity:1;stroke:none;stroke-width:0.70866144;stroke-linecap:round;stroke-linejoin:round;stroke-miterlimit:4;stroke-dasharray:none;stroke-dashoffset:0;stroke-opacity:1"
       id="rect4242-8-9-9-8-5-7"
       width="325.98425"
       height="240.94489"
       x="382.67715"
       y="775.98425" />
    <text
       xml:space="preserve"
       style="font-style:normal;font-variant:normal;font-weight:normal;font-stretch:normal;font-size:12.5px;line-height:120.00000477%;font-family:opensans;-inkscape-font-specification:opensans;letter-spacing:0px;word-spacing:0px;fill:url(#Blue);fill-opacity:1;stroke:none;stroke-width:1px;stroke-linecap:butt;stroke-linejoin:miter;stroke-opacity:1"
       x="396.8504"
       y="807.87402"
       id="text4331-2-8-2-2-4-8"
       sodipodi:linespacing="120%"><tspan
         sodipodi:role="line"
         id="tspan4333-1-2-0-2-2-5"
         x="396.8504"
         y="807.87402"
         style="font-style:normal;font-variant:normal;font-weight:bold;font-stretch:condensed;font-size:22.5px;font-family:'Open Sans Condensed';-inkscape-font-specification:'Open Sans Condensed, Bold Condensed';fill:url(#Blue);fill-opacity:1">Step 7 - Wrap Box</tspan></text>
    <flowRoot
       xml:space="preserve"
       id="flowRoot4234-8-1-4-5-3-4"
       style="font-style:normal;font-weight:normal;font-size:12.5px;line-height:120.00000477%;font-family:Sans;letter-spacing:0px;word-spacing:0px;fill:#000000;fill-opacity:1;stroke:none;stroke-width:1px;stroke-linecap:butt;stroke-linejoin:miter;stroke-opacity:1"
       transform="translate(361.49495,636.44626)"><flowRegion
         id="flowRegion4236-2-7-5-9-6-0"><rect
           id="rect4238-5-3-5-3-5-0"
           width="297.27756"
           height="183.03938"
           x="35.355339"
           y="186.66147" /></flowRegion><flowPara
         style="font-size:10px"
         id="flowPara4340-6-7-5-2-6">Place the box into the polythene bag and seal it shut using the built in adhesive strip and extra tape over the flap. If the box contains batteries, stick the LiPo warning label onto the package. Stick one of the document pouches onto the package, taking care to leave the narrow backing strip in place until you have put the shipping label in.</flowPara><flowPara
         style="font-size:10px"
         id="flowPara4699" /><flowPara
         style="font-size:10px"
         id="flowPara4601">If you are organising the courier, now is the time to book the collection and obtain a shipping label. If we are organising the courier, please notify your Student Robotics contact that the package is wrapped and we will provide you with a shipping label. Place the shipping label into the document pouch and seal it by removing the narrow strip. Finally, hand the package to reception or wherever it will be collected from and notify your contact.</flowPara></flowRoot>  </g>
</svg>
